# xmcd
#
# Track frame offsets: 
#        150
#        14525
#        28657
#        42297
#        56922
#        71355
#        85360
#        99867
#        114305
#        129440
#        143680
#        157490
#        170945
#        184165
#        197420
#        211215
#        225702
#        240792
#        255317
#        269512
#        284315
#
# Disc length: 3984 seconds
#
# Revision: 1
# Processed by: cddbd v1.5.2PL0 Copyright (c) Steve Scherf et al.
# Submitted via: ExactAudioCopy v1.0b1
#
DISCID=280f8e15
DTITLE=Various Artist - Peg Leg Howell and Eddie Anthony - Complete Recordings 
DTITLE=in Chronological Order Volume 2
DYEAR=1993
DGENRE=Blues
TTITLE0=Sloppy Henry - Long, Tall, Disconnected Mama
TTITLE1=Sloppy Henry - Palm Special Blues
TTITLE2=Peg Leg Howell - Banjo Blues
TTITLE3=Peg Leg Howell - Turkey Buzzard Blues
TTITLE4=Peg Leg Howell - Turtle Dove Blues
TTITLE5=Peg Leg Howell - Walkin' Blues
TTITLE6=Tampa Joe and Macon Ed - Wringing That Thing
TTITLE7=Tampa Joe and Macon Ed - Worrying Blues
TTITLE8=Peg Leg Howell - Broke and Hungry Blues
TTITLE9=Peg Leg Howell - Rolling Mill Blues
TTITLE10=Peg Leg Howell - Ball and Chain Blues
TTITLE11=Peg Leg Howell - Monkey Man Blues
TTITLE12=Peg Leg Howell - Chittlin' Supper
TTITLE13=Peg Leg Howell - Away from Home
TTITLE14=Macon Ed and Tampa Joe - Everything's Coming My Way
TTITLE15=Macon Ed and Tampa Joe - Mean Florida Blues
TTITLE16=Macon Ed and Tampa Joe - Try That Thing
TTITLE17=Macon Ed and Tampa Joe - Tickle Britches
TTITLE18=Macon Ed and Tampa Joe - Tantalizing Bootblack
TTITLE19=Macon Ed and Tampa Joe - Warm Wipe Stomp
TTITLE20=Brothers Wright and Williams - I'll Play My Harp In Beulah La
TTITLE20=nd
EXTD=
EXTT0=
EXTT1=
EXTT2=
EXTT3=
EXTT4=
EXTT5=
EXTT6=
EXTT7=
EXTT8=
EXTT9=
EXTT10=
EXTT11=
EXTT12=
EXTT13=
EXTT14=
EXTT15=
EXTT16=
EXTT17=
EXTT18=
EXTT19=
EXTT20=
PLAYORDER=
